<svg id="Layer_1" data-name="Layer 1" xmlns="http://www.w3.org/2000/svg" viewBox="0 0 1008.54 614.85"><defs><style>.cls-1,.cls-3,.cls-4{fill:none;}.cls-1{stroke:#790252;stroke-width:14px;}.cls-1,.cls-2,.cls-3{stroke-miterlimit:10;}.cls-2{fill:#8ad7bc;stroke:#fff;stroke-width:0.75px;}.cls-3{stroke:#000;stroke-width:9px;}</style></defs><path class="cls-1" d="M293.16,854.37,539,329,659.69,590.28c20.53-50,149.46-358.39,252.33-340,16.31,2.91,36,14.76,55.33,50" transform="translate(-35.73 -242.49)"/><path class="cls-2" d="M43.84,581.77a7.77,7.77,0,0,1,7.39,5.52c6.91,22.19,23.68,35.15,52.94,35.15,35.17,0,48.63-17.59,48.63-38.47,0-21.71-9.61-35.18-51.93-45.62C60.2,528.18,42.61,515,42.61,487.24c0-25.28,18.41-48.91,59.63-48.91,36.41,0,54.71,19.12,60.69,39.33a7.7,7.7,0,0,1-7.41,9.86h-.07a7.68,7.68,0,0,1-7.34-5.36c-5.53-17.78-19.15-30.09-46.69-30.09-27.76,0-42.87,12.91-42.87,34.35,0,21.15,12.64,29.4,48.09,38.19,54.13,13.47,62.1,35.18,62.1,58.26,0,28.3-20.61,52.76-65.12,52.76-42.1,0-60.82-21.48-67.23-44.16a7.68,7.68,0,0,1,7.45-9.7Z" transform="translate(-35.73 -242.49)"/><path class="cls-2" d="M213.35,321.13h0a7.42,7.42,0,0,1,7.42,7.42V535.4a7.42,7.42,0,0,0,7.42,7.42H328.77a7.42,7.42,0,0,0,7.42-7.42V328.55a7.42,7.42,0,0,1,7.42-7.42h0a7.42,7.42,0,0,1,7.41,7.42V801.63H336.19V564a7.42,7.42,0,0,0-7.42-7.42H228.19a7.42,7.42,0,0,0-7.42,7.42V801.63H205.94V328.55A7.42,7.42,0,0,1,213.35,321.13Z" transform="translate(-35.73 -242.49)"/><path class="cls-2" d="M495.63,589.21l-21,57.21a7.08,7.08,0,0,1-6.66,4.64h0a7.1,7.1,0,0,1-6.66-9.54l65.41-178.16a7.11,7.11,0,0,1,6.66-4.65h7.76a7.08,7.08,0,0,1,6.62,4.56l68.21,178.16a7.09,7.09,0,0,1-6.62,9.63h-1a7.1,7.1,0,0,1-6.64-4.59l-21.55-57.31a7.1,7.1,0,0,0-6.64-4.6h-71.2A7.11,7.11,0,0,0,495.63,589.21ZM557,573.57a7.1,7.1,0,0,0,6.64-9.6c-19.07-50.68-29-75.78-32.67-88h-.27c-4.37,13.61-15.44,44.24-31,88.08a7.09,7.09,0,0,0,6.68,9.47Z" transform="translate(-35.73 -242.49)"/><path class="cls-2" d="M757,562.58v89.86H741.91V460.09h69c37.92,0,58,20.33,58,50.56,0,24.45-14.56,40.39-36,45.06,19.79,4.67,33,17.59,33,50.29v7.42c0,13.46-1.1,31.6,2.47,39H853.2c-3.57-8.25-2.75-23.63-2.75-40.12v-5c0-31.6-9.34-44.79-46.16-44.79Zm0-60.18a46.44,46.44,0,0,0,46.44,46.44h0c33.8,0,49.46-12.64,49.46-37.92,0-23.63-15.38-37.1-45.34-37.1H757Z" transform="translate(-35.73 -242.49)"/><path class="cls-2" d="M915.85,462.42a2.33,2.33,0,0,1,2.33-2.33h66.36c35.18,0,59.36,19.51,59.36,53.58,0,34.62-23.91,55-61.28,55H933.29A2.33,2.33,0,0,0,931,571V650.1a2.34,2.34,0,0,1-2.34,2.34H918.18a2.33,2.33,0,0,1-2.33-2.34ZM931,552.55c0,1.29,26.81,2.34,28.1,2.34H984c24.65,0,37.87-10.39,42.27-26.76,7.39-27.45-13.94-54.31-42.37-54.31h-50.6a2.33,2.33,0,0,0-2.33,2.34Z" transform="translate(-35.73 -242.49)"/><path class="cls-3" d="M435.86,1284.63" transform="translate(-35.73 -242.49)"/><path class="cls-3" d="M885.74,261.61" transform="translate(-35.73 -242.49)"/><path class="cls-4" d="M581.12,640.15" transform="translate(-35.73 -242.49)"/><path class="cls-4" d="M581.12,640.15" transform="translate(-35.73 -242.49)"/><path class="cls-4" d="M581.12,640.15" transform="translate(-35.73 -242.49)"/></svg>